<?xml version="1.0" encoding="UTF-8"?>
<svg id="Layer_1" data-name="Layer 1" xmlns="http://www.w3.org/2000/svg" xmlns:xlink="http://www.w3.org/1999/xlink" viewBox="0 0 16 16">
  <defs>
    <style>
      .cls-1 {
        fill: url(#radial-gradient-8);
      }

      .cls-1, .cls-2, .cls-3, .cls-4, .cls-5, .cls-6, .cls-7, .cls-8, .cls-9 {
        stroke-width: 0px;
      }

      .cls-2 {
        fill: url(#radial-gradient-2);
      }

      .cls-3 {
        fill: url(#radial-gradient-7);
      }

      .cls-4 {
        fill: url(#radial-gradient-5);
      }

      .cls-5 {
        fill: url(#radial-gradient);
      }

      .cls-6 {
        fill: url(#radial-gradient-6);
      }

      .cls-7 {
        fill: url(#radial-gradient-9);
      }

      .cls-8 {
        fill: url(#radial-gradient-3);
      }

      .cls-9 {
        fill: url(#radial-gradient-4);
      }
    </style>
    <radialGradient id="radial-gradient" cx="6.35" cy="3.48" fx="6.35" fy="3.48" r="2.64" gradientUnits="userSpaceOnUse">
      <stop offset="0" stop-color="#cbdff2"/>
      <stop offset=".14" stop-color="#a1cfec"/>
      <stop offset=".36" stop-color="#68b9e4"/>
      <stop offset=".57" stop-color="#3ba7de"/>
      <stop offset=".75" stop-color="#1a9bd9"/>
      <stop offset=".9" stop-color="#0793d6"/>
      <stop offset="1" stop-color="#0091d6"/>
    </radialGradient>
    <radialGradient id="radial-gradient-2" cx="3.99" cy="5.43" fx="3.99" fy="5.43" r="2.6" xlink:href="#radial-gradient"/>
    <radialGradient id="radial-gradient-3" cx="10.52" cy="3.99" fx="10.52" fy="3.99" r="2.52" xlink:href="#radial-gradient"/>
    <radialGradient id="radial-gradient-4" cx="12.63" cy="6.3" fx="12.63" fy="6.3" r="2.54" xlink:href="#radial-gradient"/>
    <radialGradient id="radial-gradient-5" cx="3.42" cy="9.8" fx="3.42" fy="9.8" r="2.61" xlink:href="#radial-gradient"/>
    <radialGradient id="radial-gradient-6" cx="5.53" cy="12.01" fx="5.53" fy="12.01" r="2.55" xlink:href="#radial-gradient"/>
    <radialGradient id="radial-gradient-7" cx="12.01" cy="10.62" fx="12.01" fy="10.62" r="2.47" xlink:href="#radial-gradient"/>
    <radialGradient id="radial-gradient-8" cx="9.7" cy="12.63" fx="9.7" fy="12.63" r="2.59" xlink:href="#radial-gradient"/>
    <radialGradient id="radial-gradient-9" cx="8.05" cy="8.1" fx="8.05" fy="8.1" r="1.13" xlink:href="#radial-gradient"/>
  </defs>
  <path class="cls-5" d="m8.21,1.47c0-.68-.55-1.23-1.23-1.23s-1.23.55-1.23,1.23c0,.63.47,1.15,1.08,1.22v2.81s-.08.03-.12.05l-.66-.77c.08-.12.12-.27.12-.43,0-.45-.37-.82-.82-.82s-.82.37-.82.82.37.82.82.82c.19,0,.36-.06.49-.17l.64.74c-.07.1-.11.22-.11.35,0,.34.28.62.62.62s.62-.28.62-.62c0-.29-.2-.53-.46-.6v-2.81c.61-.08,1.08-.59,1.08-1.22Z"/>
  <path class="cls-2" d="m5.84,6.61c-.14,0-.26.05-.37.12l-2.03-1.77c.33-.22.54-.6.54-1.02,0-.68-.55-1.23-1.23-1.23s-1.23.55-1.23,1.23.55,1.23,1.23,1.23c.14,0,.27-.02.39-.06l2.14,1.87s-.02.04-.03.07h-1.01c-.12-.31-.42-.53-.77-.53-.45,0-.82.37-.82.82s.37.82.82.82.82-.36.82-.81h.94c.06.29.31.5.61.5.34,0,.62-.28.62-.62s-.28-.62-.62-.62Z"/>
  <path class="cls-8" d="m11.8,1.47c-.68,0-1.23.55-1.23,1.23,0,.26.08.5.21.69l-1.81,1.99s-.08-.05-.12-.07l.03-.97c.43-.03.77-.38.77-.82s-.37-.82-.82-.82-.82.37-.82.82c0,.37.24.67.57.78l-.03.97c-.3.04-.54.3-.54.61,0,.34.28.62.62.62s.62-.28.62-.62c0-.1-.02-.19-.06-.27l1.82-1.99c.22.19.5.31.81.31.68,0,1.23-.55,1.23-1.23s-.55-1.23-1.23-1.23Z"/>
  <path class="cls-9" d="m14.48,5.69c-.63,0-1.15.48-1.23,1.09l-2.48.23s0-.06,0-.09c0-.11-.03-.21-.07-.29l.65-.67c.13.09.29.14.46.14.45,0,.82-.37.82-.82s-.37-.82-.82-.82-.82.37-.82.82c0,.17.05.33.15.47l-.64.66c-.1-.06-.21-.1-.33-.1-.34,0-.62.28-.62.62s.28.62.62.62c.18,0,.35-.08.46-.21l2.64-.24c.08.6.6,1.07,1.22,1.07.68,0,1.23-.55,1.23-1.23s-.55-1.23-1.23-1.23Z"/>
  <path class="cls-4" d="m5.94,8.57c-.26,0-.48.16-.57.39l-2.63-.02c-.07-.61-.59-1.09-1.22-1.09-.68,0-1.23.55-1.23,1.23s.55,1.23,1.23,1.23c.63,0,1.14-.47,1.22-1.07l2.59.02s.02.09.03.14l-.87.74c-.06-.02-.13-.03-.2-.03-.45,0-.82.37-.82.82s.37.82.82.82.82-.37.82-.82c0-.26-.13-.5-.32-.65l.74-.63c.11.09.25.15.4.15.34,0,.62-.28.62-.62s-.28-.62-.62-.62Z"/>
  <path class="cls-6" d="m7.33,11.86l.14-1.16c.25-.08.42-.31.42-.59,0-.34-.28-.62-.62-.62s-.62.28-.62.62c0,.21.11.4.27.51l-1.92,1.76c-.22-.2-.51-.31-.82-.31-.68,0-1.23.55-1.23,1.23s.55,1.23,1.23,1.23,1.23-.55,1.23-1.23c0-.25-.08-.49-.21-.69l1.92-1.76-.13,1.05c-.32.11-.56.42-.56.78,0,.45.37.82.82.82s.82-.37.82-.82-.34-.79-.77-.82Z"/>
  <path class="cls-3" d="m13.24,10.62c-.31,0-.6.12-.81.31l-1.64-1.98,1.03.17c.07.38.41.67.81.67.45,0,.82-.37.82-.82s-.37-.82-.82-.82c-.4,0-.73.28-.81.66l-1.09-.19c-.09-.22-.31-.37-.57-.37-.34,0-.62.28-.62.62s.28.62.62.62c.2,0,.37-.09.48-.24l1.58,1.91c-.13.2-.21.44-.21.69,0,.68.55,1.23,1.23,1.23s1.23-.55,1.23-1.23-.55-1.23-1.23-1.23Z"/>
  <path class="cls-1" d="m10.78,11.03c-.23,0-.43.09-.58.24l-.72-.74c.1-.11.17-.26.17-.42,0-.34-.28-.62-.62-.62s-.62.28-.62.62c0,.31.23.57.54.61l.15,2.58s-.05,0-.07,0c-.68,0-1.23.55-1.23,1.23s.55,1.23,1.23,1.23,1.23-.55,1.23-1.23c0-.55-.36-1.01-.85-1.17l-.15-2.61.76.79c-.04.1-.07.21-.07.32,0,.45.37.82.82.82s.82-.37.82-.82-.37-.82-.82-.82Z"/>
  <circle class="cls-7" cx="8.05" cy="8.1" r="1.13"/>
</svg>